HIERARCHY
ROOT Hips
{
	OFFSET 0.00000 0.00000 0.00000
	CHANNELS 6 Xposition Yposition Zposition Zrotation Yrotation Xrotation 
	JOINT LHipJoint
	{
		OFFSET 0 0 0
		CHANNELS 3 Zrotation Yrotation Xrotation
		JOINT LeftUpLeg
		{
			OFFSET 1.49715 -1.76614 1.90432
			CHANNELS 3 Zrotation Yrotation Xrotation
			JOINT LeftLeg
			{
				OFFSET 2.35844 -6.47976 0.00000
				CHANNELS 3 Zrotation Yrotation Xrotation
				JOINT LeftFoot
				{
					OFFSET 2.73785 -7.52219 0.00000
					CHANNELS 3 Zrotation Yrotation Xrotation
					JOINT LeftToeBase
					{
						OFFSET 0.14074 -0.40172 2.02264
						CHANNELS 3 Zrotation Yrotation Xrotation
						End Site
						{
							OFFSET 0.00000 -0.00000 1.04539
						}
					}
				}
			}
		}
	}
	JOINT RHipJoint
	{
		OFFSET 0 0 0
		CHANNELS 3 Zrotation Yrotation Xrotation
		JOINT RightUpLeg
		{
			OFFSET -0.96261 -1.76614 1.90432
			CHANNELS 3 Zrotation Yrotation Xrotation
			JOINT RightLeg
			{
				OFFSET -2.38693 -6.55804 0.00000
				CHANNELS 3 Zrotation Yrotation Xrotation
				JOINT RightFoot
				{
					OFFSET -2.65769 -7.30194 0.00000
					CHANNELS 3 Zrotation Yrotation Xrotation
					JOINT RightToeBase
					{
						OFFSET -0.22087 -0.60685 2.05176
						CHANNELS 3 Zrotation Yrotation Xrotation
						End Site
						{
							OFFSET -0.00011 -0.00128 1.07650
						}
					}
				}
			}
		}
	}
	JOINT LowerBack
	{
		OFFSET 0 0 0
		CHANNELS 3 Zrotation Yrotation Xrotation
		JOINT Spine
		{
			OFFSET -0.03634 1.88467 0.28386
			CHANNELS 3 Zrotation Yrotation Xrotation
			JOINT Spine1
			{
				OFFSET -0.03393 1.87370 -0.16959
				CHANNELS 3 Zrotation Yrotation Xrotation
				JOINT Neck
				{
					OFFSET 0 0 0
					CHANNELS 3 Zrotation Yrotation Xrotation
					JOINT Neck1
					{
						OFFSET -0.03729 2.05330 -0.42975
						CHANNELS 3 Zrotation Yrotation Xrotation
						JOINT Head
						{
							OFFSET 0.22896 2.10694 0.01084
							CHANNELS 3 Zrotation Yrotation Xrotation
							End Site
							{
								OFFSET 0.09101 2.14588 0.03889
							}
						}
					}
				}
				JOINT LeftShoulder
				{
					OFFSET 0 0 0
					CHANNELS 3 Zrotation Yrotation Xrotation
					JOINT LeftArm
					{
						OFFSET 4.11898 1.88020 1.39256
						CHANNELS 3 Zrotation Yrotation Xrotation
						JOINT LeftForeArm
						{
							OFFSET 4.72096 -0.00000 0.00000
							CHANNELS 3 Zrotation Yrotation Xrotation
							JOINT LeftHand
							{
								OFFSET 3.18148 -0.00000 0.00000
								CHANNELS 3 Zrotation Yrotation Xrotation
								JOINT LeftFingerBase
								{
									OFFSET 0 0 0
									CHANNELS 3 Zrotation Yrotation Xrotation
									JOINT LeftHandIndex1
									{
										OFFSET 0.84872 -0.00000 0.00000
										CHANNELS 3 Zrotation Yrotation Xrotation
										End Site
										{
											OFFSET 0.68426 -0.00000 0.00000
										}
									}
								}
								JOINT LThumb
								{
									OFFSET 0 0 0
									CHANNELS 3 Zrotation Yrotation Xrotation
									End Site
									{
										OFFSET 0.69470 -0.00000 0.69470
									}
								}
							}
						}
					}
				}
				JOINT RightShoulder
				{
					OFFSET 0 0 0
					CHANNELS 3 Zrotation Yrotation Xrotation
					JOINT RightArm
					{
						OFFSET -3.95234 1.59593 0.39942
						CHANNELS 3 Zrotation Yrotation Xrotation
						JOINT RightForeArm
						{
							OFFSET -4.76918 -0.00000 0.00000
							CHANNELS 3 Zrotation Yrotation Xrotation
							JOINT RightHand
							{
								OFFSET -3.36438 0.00089 -0.00051
								CHANNELS 3 Zrotation Yrotation Xrotation
								JOINT RightFingerBase
								{
									OFFSET 0 0 0
									CHANNELS 3 Zrotation Yrotation Xrotation
									JOINT RightHandIndex1
									{
										OFFSET -0.76769 -0.00000 0.00000
										CHANNELS 3 Zrotation Yrotation Xrotation
										End Site
										{
											OFFSET -0.61894 -0.00000 0.00000
										}
									}
								}
								JOINT RThumb
								{
									OFFSET 0 0 0
									CHANNELS 3 Zrotation Yrotation Xrotation
									End Site
									{
										OFFSET -0.62838 -0.00000 0.62838
									}
								}
							}
						}
					}
				}
			}
		}
	}
}
MOTION
Frames: 7
Frame Time: .0083333
1.3751 17.5459 -0.4422 2.0632 0.1928 10.4456 0.0000 0.0000 0.0000 -22.4124 -4.2018 -21.9052 2.4649 9.7738 28.2473 1.2377 0.3419 -21.1639 0.4599 -4.3501 -12.0638 0.0000 0.0000 0.0000 1.1831 5.0521 -33.4445 -6.3347 -14.7450 46.3107 2.1261 -24.7739 -8.7661 -0.0569 -1.5387 4.2324 -1.5129 1.7544 -22.1694 -2.3237 3.3299 7.1680 -0.4894 1.4154 20.7165 -4.8878 -1.6040 24.3565 10.3780 -2.7666 1.0668 4.3327 -1.9777 -3.2645 0.0000 -0.0000 0.0000 -40.1275 -34.7617 -16.0136 82.3297 -59.7765 -53.3623 -0.0000 0.0000 -60.4110 -35.1815 31.3616 -20.1469 -7.1250 0.0000 -0.0000 -63.7122 50.8192 -14.0738 0.0000 -0.0000 0.0000 46.1039 27.2136 -1.5101 -127.4928 53.9580 -91.8108 0.0000 -0.0000 -41.5176 52.7610 -0.5801 -0.7632 7.1250 -0.0000 -0.0000 43.6040 -13.3180 52.4859
1.4542 17.5541 -0.4718 1.8063 0.2700 10.4361 0.0000 0.0000 0.0000 -22.4419 -4.1260 -22.0598 2.4596 9.7640 28.2159 1.2302 0.4821 -21.1504 0.5102 -4.5787 -12.7107 0.0000 0.0000 0.0000 1.6030 5.0414 -35.3165 -6.8157 -15.1747 48.1737 2.1589 -24.9493 -8.7985 -0.0818 -1.8451 5.0778 -1.5355 1.7381 -22.0585 -2.2664 3.2961 7.1039 -0.4288 1.3955 20.5601 -4.8290 -1.6224 24.3957 10.5253 -2.7744 1.1863 4.3706 -1.9897 -3.2337 0.0000 0.0000 0.0000 -39.8595 -34.8887 -15.8207 81.0800 -59.6972 -52.2829 -0.0000 0.0000 -60.4040 -32.9157 31.7944 -18.8321 -7.1250 0.0000 -0.0000 -62.6710 51.5007 -14.9748 0.0000 0.0000 0.0000 46.3752 28.0379 -1.9222 -126.9078 54.1690 -91.3372 0.0000 -0.0000 -41.4125 52.9311 0.6982 0.9242 7.1250 -0.0000 -0.0000 43.2609 -11.5299 54.3301
1.5267 17.5609 -0.5008 1.5849 0.3914 10.3592 0.0000 0.0000 0.0000 -22.4459 -4.0528 -22.1456 2.4563 9.7581 28.1968 1.2153 0.3743 -20.9839 0.4335 -4.2252 -11.7111 0.0000 0.0000 0.0000 2.1223 4.9166 -37.1696 -7.2707 -15.5557 49.8910 2.0020 -24.0911 -8.8253 -0.0817 -1.8438 5.0743 -1.6366 1.6993 -21.8145 -2.2264 3.2560 7.0707 -0.3502 1.3658 20.3613 -4.5592 -1.6728 24.4584 10.4785 -2.7663 1.1484 4.3133 -1.9854 -3.2585 0.0000 -0.0000 0.0000 -39.5359 -35.1012 -15.6573 79.8071 -59.6038 -51.1844 -0.0000 0.0000 -60.4034 -31.3816 32.0384 -17.9304 -7.1250 0.0000 -0.0000 -61.8702 51.9375 -15.4457 0.0000 -0.0000 0.0000 46.6256 28.7799 -2.3278 -126.2770 54.3910 -90.8250 0.0000 -0.0000 -41.2304 51.8186 1.6078 2.0434 7.1250 -0.0000 -0.0000 43.1648 -12.1039 53.0083
1.6052 17.5698 -0.5242 1.4523 0.3907 10.3413 0.0000 0.0000 0.0000 -22.6096 -4.0736 -22.1994 2.4516 9.7494 28.1689 1.1908 0.6955 -20.8899 0.4875 -4.4769 -12.4223 0.0000 0.0000 0.0000 2.6102 4.6046 -39.2517 -7.6824 -15.8806 51.4103 1.8384 -23.1808 -7.8043 -0.0326 -1.1661 3.2061 -1.6495 1.7322 -21.7442 -2.2808 3.3120 7.0514 -0.3855 1.3941 20.2986 -4.2255 -1.7225 24.7199 10.4134 -2.7254 0.8719 4.2456 -1.9735 -3.3880 -0.0000 0.0000 0.0000 -39.2311 -35.4635 -15.4650 78.7697 -59.5180 -50.2900 -0.0000 0.0000 -60.8402 -29.3636 32.5102 -16.8247 -7.1250 0.0000 -0.0000 -60.9276 52.6141 -16.2550 -0.0000 0.0000 0.0000 46.7906 29.3190 -2.6657 -125.6543 54.6046 -90.3181 0.0000 -0.0000 -41.0787 50.2864 2.1519 2.5883 7.1250 -0.0000 -0.0000 43.1453 -13.5161 50.5427
1.6806 17.5819 -0.5487 1.2719 0.3432 10.4212 0.0000 0.0000 0.0000 -22.7051 -4.1527 -22.3670 2.4487 9.7441 28.1519 1.1920 0.7408 -20.9176 0.5338 -4.6815 -13.0023 0.0000 0.0000 0.0000 3.3194 4.2167 -41.4848 -8.0318 -16.1426 52.6770 1.7368 -22.6078 -6.9974 -0.0036 -0.3895 1.0703 -1.6321 1.7887 -21.7472 -2.2985 3.3845 6.9953 -0.3881 1.4294 20.2312 -3.9864 -1.7554 25.1254 10.3714 -2.6775 0.4580 4.2059 -1.9659 -3.5796 -0.0000 0.0000 0.0000 -38.9685 -36.0258 -15.7413 77.5750 -59.4086 -49.2610 -0.0000 0.0000 -60.2706 -28.4216 32.4188 -16.1791 -7.1250 0.0000 -0.0000 -60.1437 52.7371 -16.0998 -0.0000 0.0000 0.0000 46.7661 29.7879 -3.0014 -124.7943 54.8908 -89.6158 0.0000 -0.0000 -41.0339 49.1014 2.6102 3.0096 7.1250 -0.0000 -0.0000 43.0770 -14.4128 48.7867
1.7455 17.5850 -0.5733 0.9880 0.3952 10.4965 0.0000 0.0000 0.0000 -22.6158 -4.1739 -22.5609 2.4428 9.7331 28.1166 1.1774 0.4175 -20.6707 0.4315 -4.2157 -11.6844 0.0000 0.0000 0.0000 4.3405 3.8202 -43.4549 -8.3196 -16.3493 53.7057 1.6522 -22.0629 -7.2641 -0.0090 -0.6131 1.6849 -1.6467 1.7860 -21.7941 -2.2369 3.3777 7.0534 -0.3105 1.4174 20.3278 -4.0096 -1.8966 24.4479 10.5317 -2.8902 0.9937 4.2547 -2.0531 -3.3032 -0.0000 0.0000 0.0000 -38.6393 -36.7126 -16.0876 76.4081 -59.2903 -48.2572 -0.0000 0.0000 -59.7306 -27.5752 32.3365 -15.6072 -7.1250 0.0000 -0.0000 -59.4326 52.8475 -15.9576 -0.0000 0.0000 0.0000 46.5175 30.3539 -3.5030 -123.8684 55.1878 -88.8569 0.0000 -0.0000 -41.1946 47.5083 2.9415 3.2062 7.1250 -0.0000 -0.0000 42.9977 -15.7198 46.3070
1.8095 17.5889 -0.5931 0.6719 0.4850 10.5396 0.0000 0.0000 0.0000 -22.4861 -4.1662 -22.7041 2.4336 9.7162 28.0625 1.1503 0.2208 -20.3616 0.3421 -3.7583 -10.3977 0.0000 0.0000 0.0000 5.4379 3.4277 -45.2476 -8.5448 -16.5057 54.5022 1.5766 -21.5913 -6.9725 -0.0289 -1.0968 3.0153 -1.6212 1.7750 -21.8660 -2.1790 3.3517 7.1606 -0.2656 1.4014 20.5063 -3.7633 -2.0929 23.4204 10.4052 -3.1242 1.6186 4.1581 -2.1227 -2.9528 0.0000 0.0000 0.0000 -38.2105 -37.2350 -16.4183 75.6323 -59.2054 -47.5904 -0.0000 0.0000 -59.6284 -26.7319 32.3049 -15.0647 -7.1250 0.0000 -0.0000 -58.7696 52.9897 -15.8931 0.0000 0.0000 0.0000 46.1532 30.8989 -4.0841 -123.0516 55.4404 -88.1853 0.0000 -0.0000 -41.4000 46.2630 3.1317 3.2677 7.1250 -0.0000 -0.0000 42.9044 -16.6634 44.4323
